<svg fill="none" height="160" viewBox="0 0 768 160" width="768" xmlns="http://www.w3.org/2000/svg" xmlns:xlink="http://www.w3.org/1999/xlink"><mask id="a" height="160" maskUnits="userSpaceOnUse" width="768" x="0" y="0"><path d="m768 0h-768v60c0 55.228 44.7715 100 100 100h668z" fill="#fff"/></mask><path d="m768 0h-768v60c0 55.228 44.7715 100 100 100h668z" fill="#5964e0"/><g clip-rule="evenodd" fill="#fff" fill-rule="evenodd" mask="url(#a)"><path d="m254.539-323.259c-3.117-31.792 29.711-54.779 58.52-40.976l344.161 164.898c28.291 13.556 31.498 52.567 5.8 70.561l-306.916 214.9046c-25.698 17.9934-61.259 1.6374-64.321-29.5839z" opacity=".08138"/><path d="m-71.4608 71.7412c-3.1177-31.7925 29.7112-54.7795 58.5201-40.9762l344.1607 164.898c28.291 13.556 31.498 52.567 5.8 70.561l-306.9159 214.905c-25.69767 17.993-61.2593 1.637-64.3209-29.584z" opacity=".08138"/></g></svg>