<svg height="19" width="20" xmlns="http://www.w3.org/2000/svg"><path d="m10 15.635c.33 0 .612.295.612.639v1.89c0 .344-.282.638-.612.638s-.612-.294-.612-.638v-1.89c0-.344.282-.639.612-.639zm-4.488-1.783c.27.262.27.68 0 .941l-1.482 1.438a.698.698 0 0 1 -.97 0 .649.649 0 0 1 0-.941l1.482-1.438c.27-.261.7-.261.97 0zm9.946 0 1.483 1.438c.27.261.27.68 0 .941a.698.698 0 0 1 -.97 0l-1.483-1.438a.649.649 0 0 1 0-.94c.242-.262.674-.262.97 0zm-5.458-9.3c1.396 0 2.685.525 3.598 1.4.913.85 1.504 2.05 1.504 3.35s-.59 2.5-1.504 3.35a5.314 5.314 0 0 1 -3.598 1.4c-1.396 0-2.685-.525-3.598-1.4-.913-.85-1.504-2.05-1.504-3.35s.564-2.5 1.504-3.35a5.314 5.314 0 0 1 3.598-1.4zm-7.393 4.354c.355 0 .658.274.658.594s-.303.594-.658.594h-1.949c-.354 0-.658-.274-.658-.594s.304-.594.658-.594h1.95zm16.735 0c.354 0 .658.274.658.594s-.304.594-.658.594h-1.95c-.354 0-.657-.274-.657-.594s.303-.594.658-.594zm-15.312-6.136 1.482 1.438c.27.261.27.68 0 .94-.242.262-.674.262-.97 0l-1.483-1.438a.649.649 0 0 1 0-.941c.27-.261.701-.261.97 0zm12.91 0c.27.261.27.68 0 .941l-1.482 1.438a.698.698 0 0 1 -.97 0 .649.649 0 0 1 0-.941l1.482-1.438c.27-.261.701-.261.97 0zm-6.94-2.572c.33 0 .612.294.612.638v1.89c0 .344-.282.639-.612.639s-.612-.295-.612-.639v-1.89c0-.344.282-.638.612-.638z" fill="#fff"/></svg>