<svg height="32" width="115" xmlns="http://www.w3.org/2000/svg"><path d="m7.612 24.08c1.022 0 1.967-.178 2.838-.531a6.998 6.998 0 0 0 2.29-1.498l.109 1.711h4.252v-23.762h-4.502v9.49a7.369 7.369 0 0 0 -2.251-1.387 7.394 7.394 0 0 0 -2.736-.499c-1.458 0-2.764.356-3.915 1.07-1.152.712-2.056 1.689-2.712 2.93-.657 1.24-.985 2.653-.985 4.238 0 1.584.328 2.996.985 4.237.656 1.241 1.56 2.218 2.712 2.93 1.151.714 2.457 1.07 3.915 1.07zm1.017-3.961c-1.147 0-2.095-.407-2.845-1.22s-1.126-1.832-1.126-3.057.375-2.245 1.126-3.058c.75-.813 1.698-1.22 2.845-1.22 1.146 0 2.094.407 2.844 1.22s1.126 1.833 1.126 3.058-.375 2.244-1.126 3.057c-.75.813-1.698 1.22-2.844 1.22zm20.258 3.96c1.084 0 2.217-.18 3.4-.538 1.182-.36 2.378-1.02 3.587-1.98l-2.72-3.296a7.804 7.804 0 0 1 -1.946 1.37c-.714.354-1.613.531-2.696.531-1.011 0-1.894-.274-2.65-.823a4.154 4.154 0 0 1 -1.555-2.139h12.192v-1.378c0-1.595-.354-3.01-1.063-4.246a7.772 7.772 0 0 0 -2.9-2.915c-1.224-.707-2.623-1.061-4.196-1.061-1.584 0-2.999.356-4.244 1.07a7.897 7.897 0 0 0 -2.947 2.914c-.719 1.23-1.078 2.632-1.078 4.206 0 1.595.375 3.018 1.125 4.27.75 1.25 1.787 2.233 3.11 2.946 1.324.713 2.85 1.07 4.58 1.07zm2.985-9.41h-7.659a4.047 4.047 0 0 1 1.383-2.233c.704-.581 1.535-.872 2.494-.872.948 0 1.76.286 2.438.856.677.57 1.126 1.32 1.344 2.25zm16.273 9.093 6.174-15.841h-4.736l-2.61 7.715a23.244 23.244 0 0 0 -.509 1.774c-.193.76-.351 1.452-.477 2.075h-.062a32.377 32.377 0 0 0 -.43-2.09c-.182-.772-.346-1.358-.492-1.76l-2.83-7.714h-4.892l6.487 15.841zm10.254-18.692c.75 0 1.355-.232 1.813-.697.459-.464.688-1.077.688-1.837s-.23-1.373-.688-1.838c-.458-.466-1.063-.698-1.813-.698s-1.355.232-1.813.697c-.459.465-.688 1.077-.688 1.838 0 .76.229 1.373.688 1.837.458.465 1.062.697 1.813.697zm-3.517 26.93c1.865 0 3.293-.504 4.283-1.513.99-1.008 1.485-2.453 1.485-4.333v-18.233h-4.502v17.71c0 .75-.237 1.34-.711 1.767-.474.428-1.076.642-1.806.642-.542 0-1.1-.122-1.672-.365v3.739c.99.39 1.964.586 2.923.586zm16.835-7.92c1.605 0 3.032-.357 4.283-1.07a7.903 7.903 0 0 0 2.962-2.93c.724-1.242 1.086-2.654 1.086-4.238 0-1.585-.362-2.997-1.086-4.238a7.903 7.903 0 0 0 -2.962-2.93c-1.25-.714-2.678-1.07-4.283-1.07s-3.035.356-4.291 1.07a7.887 7.887 0 0 0 -2.97 2.93c-.724 1.24-1.086 2.653-1.086 4.238 0 1.584.362 2.996 1.086 4.237a7.887 7.887 0 0 0 2.97 2.93c1.256.714 2.686 1.07 4.29 1.07zm0-3.961c-1.147 0-2.095-.407-2.845-1.22s-1.126-1.832-1.126-3.057.376-2.245 1.126-3.058 1.698-1.22 2.845-1.22c1.146 0 2.094.407 2.845 1.22.75.813 1.125 1.833 1.125 3.058s-.375 2.244-1.125 3.057-1.699 1.22-2.845 1.22zm20.79 3.96c1.469 0 2.777-.356 3.923-1.07 1.146-.712 2.048-1.689 2.704-2.93.657-1.24.985-2.653.985-4.237 0-1.585-.328-2.997-.985-4.238-.656-1.241-1.558-2.218-2.704-2.93-1.146-.714-2.454-1.07-3.924-1.07-.98 0-1.89.166-2.735.499a7.369 7.369 0 0 0 -2.251 1.386v-9.489h-4.502v23.762h4.252l.11-1.71a6.978 6.978 0 0 0 2.297 1.497c.876.353 1.819.53 2.83.53zm-1.017-3.96c-1.146 0-2.094-.407-2.844-1.22s-1.126-1.832-1.126-3.057.375-2.245 1.126-3.058c.75-.813 1.698-1.22 2.844-1.22 1.147 0 2.095.407 2.845 1.22s1.126 1.833 1.126 3.058-.375 2.244-1.126 3.057c-.75.813-1.698 1.22-2.845 1.22zm17.304 3.96c1.136 0 2.173-.198 3.111-.594s1.688-.969 2.25-1.719c.564-.75.845-1.642.845-2.677s-.263-1.872-.79-2.51a5.958 5.958 0 0 0 -1.93-1.537c-.76-.386-1.5-.721-2.22-1.006a18.284 18.284 0 0 1 -1.727-.777c-.484-.253-.727-.575-.727-.966 0-.348.175-.583.524-.705.35-.121.67-.182.961-.182.511 0 1.134.119 1.868.356.735.238 1.332.51 1.79.816l1.985-3.47a9.31 9.31 0 0 0 -2.837-1.148 13.27 13.27 0 0 0 -2.962-.356c-1.917 0-3.4.433-4.447 1.299s-1.571 1.97-1.571 3.31c0 .972.247 1.765.742 2.377a5.807 5.807 0 0 0 1.845 1.497 28.35 28.35 0 0 0 2.196 1.038c.688.285 1.295.575 1.821.871s.79.681.79 1.156c0 .328-.141.597-.422.808-.282.212-.652.317-1.11.317-.594 0-1.269-.177-2.025-.53-.755-.354-1.58-.832-2.477-1.434l-2.126 3.437c1.053.793 2.155 1.379 3.306 1.759 1.152.38 2.264.57 3.337.57z" fill="#fff"/></svg>