<svg height="7" width="34" xmlns="http://www.w3.org/2000/svg"><path d="m1 7v-2.096a1.64 1.64 0 0 0 1.109.416 1.624 1.624 0 0 0 1.472-.884c.146-.274.22-.586.22-.936s-.074-.662-.22-.936a1.624 1.624 0 0 0 -1.473-.884c-.224 0-.434.04-.628.117a1.552 1.552 0 0 0 -.51.331l-.026-.378h-.944v5.25zm.883-2.555a.825.825 0 0 1 -.632-.27.955.955 0 0 1 -.251-.675c0-.27.083-.496.25-.675a.825.825 0 0 1 .632-.27c.254 0 .465.09.632.27s.25.404.25.675c0 .27-.083.496-.25.676a.825.825 0 0 1 -.632.269zm4.189.875c.357 0 .674-.079.952-.236.278-.158.497-.374.658-.648.16-.274.241-.586.241-.936s-.08-.662-.241-.936-.38-.49-.658-.648a1.896 1.896 0 0 0 -.952-.236c-.357 0-.675.079-.954.236a1.748 1.748 0 0 0 -.66.648c-.16.274-.241.586-.241.936s.08.662.241.936.381.49.66.648c.28.157.597.236.954.236zm0-.875a.825.825 0 0 1 -.632-.27.955.955 0 0 1 -.25-.675c0-.27.083-.496.25-.675a.825.825 0 0 1 .632-.27c.255 0 .465.09.632.27s.25.404.25.675c0 .27-.083.496-.25.676a.825.825 0 0 1 -.632.269zm3.512.805v-1.858c0-.278.063-.487.19-.627a.602.602 0 0 1 .463-.21c.178 0 .33.068.457.203.126.135.189.338.189.609v1.883h1v-1.858c0-.278.064-.487.191-.627a.602.602 0 0 1 .462-.21c.179 0 .33.068.457.203.126.135.19.338.19.609v1.883h1v-1.883c0-.53-.117-.943-.351-1.24-.234-.298-.562-.447-.983-.447-.266 0-.498.06-.695.179s-.353.289-.469.51c-.222-.46-.6-.689-1.136-.689-.419 0-.751.147-.996.441l-.025-.371h-.945v3.5h1zm7.044.07c.357 0 .674-.079.952-.236.278-.158.497-.374.658-.648s.242-.586.242-.936-.08-.662-.242-.936c-.16-.274-.38-.49-.658-.648a1.896 1.896 0 0 0 -.952-.236c-.356 0-.674.079-.953.236a1.748 1.748 0 0 0 -.66.648c-.161.274-.242.586-.242.936s.08.662.242.936c.16.274.38.49.66.648.279.157.597.236.953.236zm0-.875a.825.825 0 0 1 -.632-.27.955.955 0 0 1 -.25-.675c0-.27.083-.496.25-.675a.825.825 0 0 1 .632-.27c.255 0 .466.09.633.27.166.18.25.404.25.675 0 .27-.084.496-.25.676a.825.825 0 0 1 -.633.269zm3.96.875c.227 0 .437-.04.63-.117.194-.078.364-.189.51-.331l.024.378h.945v-5.25h-1v2.096a1.64 1.64 0 0 0 -1.109-.416 1.626 1.626 0 0 0 -1.473.884 1.962 1.962 0 0 0 -.218.936c0 .35.073.662.218.936a1.626 1.626 0 0 0 1.473.884zm.226-.875a.825.825 0 0 1 -.632-.27.955.955 0 0 1 -.25-.675c0-.27.083-.496.25-.675a.825.825 0 0 1 .632-.27c.255 0 .466.09.632.27.167.18.25.404.25.675 0 .27-.083.496-.25.676a.825.825 0 0 1 -.632.269zm4.398.875c.356 0 .674-.079.951-.236.278-.158.498-.374.659-.648.16-.274.241-.586.241-.936s-.08-.662-.241-.936-.38-.49-.659-.648a1.896 1.896 0 0 0 -.951-.236c-.357 0-.675.079-.954.236a1.748 1.748 0 0 0 -.66.648c-.16.274-.241.586-.241.936s.08.662.241.936.381.49.66.648c.28.157.597.236.954.236zm0-.875a.825.825 0 0 1 -.633-.27.955.955 0 0 1 -.25-.675c0-.27.084-.496.25-.675a.825.825 0 0 1 .633-.27c.254 0 .465.09.632.27s.25.404.25.675c0 .27-.083.496-.25.676a.825.825 0 0 1 -.632.269zm3.512.805v-1.543c0-.37.082-.653.246-.853a.8.8 0 0 1 .65-.299c.13 0 .261.022.396.067l.139-.872a1.657 1.657 0 0 0 -.466-.07c-.442 0-.79.19-1.042.57l-.049-.5h-.875v3.5h1zm3.425.07c.356 0 .673-.079.951-.236.278-.158.498-.374.659-.648.16-.274.241-.586.241-.936s-.08-.662-.241-.936-.38-.49-.659-.648a1.896 1.896 0 0 0 -.951-.236c-.357 0-.675.079-.954.236a1.748 1.748 0 0 0 -.66.648c-.16.274-.241.586-.241.936s.08.662.241.936.381.49.66.648c.28.157.597.236.954.236zm0-.875a.825.825 0 0 1 -.633-.27.955.955 0 0 1 -.25-.675c0-.27.084-.496.25-.675a.825.825 0 0 1 .633-.27c.254 0 .465.09.632.27.166.18.25.404.25.675 0 .27-.084.496-.25.676a.825.825 0 0 1 -.632.269z" fill="#d7e0ff"/></svg>