<svg height="12" width="40" xmlns="http://www.w3.org/2000/svg"><path d="m3.648 11.424c1.045 0 1.856-.235 2.432-.704.576-.47.864-1.099.864-1.888v-.096c0-.715-.256-1.272-.768-1.672s-1.173-.643-1.984-.728c-.704-.075-1.19-.168-1.456-.28-.267-.112-.4-.296-.4-.552 0-.181.085-.333.256-.456.17-.123.427-.184.768-.184.373 0 .677.083.912.248s.4.392.496.68l1.824-.736a3.533 3.533 0 0 0 -.368-.696 2.777 2.777 0 0 0 -.624-.656 3.153 3.153 0 0 0 -.936-.48c-.368-.123-.803-.184-1.304-.184-.384 0-.757.053-1.12.16a2.99 2.99 0 0 0 -.96.472 2.477 2.477 0 0 0 -.672.76 2.06 2.06 0 0 0 -.256 1.04v.096c0 .757.264 1.33.792 1.72s1.24.621 2.136.696c.33.032.605.075.824.128s.392.12.52.2.216.165.264.256c.048.09.072.19.072.296 0 .181-.093.35-.28.504-.187.155-.53.232-1.032.232-.565 0-.984-.128-1.256-.384a1.819 1.819 0 0 1 -.536-.896l-1.856.608c.053.277.157.563.312.856s.376.56.664.8.65.44 1.088.6c.437.16.965.24 1.584.24zm8.196 0c1.13 0 2.035-.288 2.712-.864s1.107-1.333 1.288-2.272l-1.984-.496c-.096.523-.307.939-.632 1.248-.325.31-.797.464-1.416.464-.288 0-.56-.045-.816-.136a1.881 1.881 0 0 1 -.672-.408 1.931 1.931 0 0 1 -.456-.68 2.442 2.442 0 0 1 -.168-.936v-.096c0-.352.056-.67.168-.952.112-.283.264-.523.456-.72s.416-.35.672-.456a2.1 2.1 0 0 1 .816-.16c.619 0 1.099.17 1.44.512.341.341.544.747.608 1.216l1.984-.512c-.181-.939-.616-1.696-1.304-2.272s-1.587-.864-2.696-.864c-.576 0-1.117.096-1.624.288a3.89 3.89 0 0 0 -1.328.832c-.379.363-.675.8-.888 1.312s-.32 1.088-.32 1.728v.192c0 .64.107 1.21.32 1.712.213.501.507.923.88 1.264s.813.603 1.32.784a4.832 4.832 0 0 0 1.64.272zm8.196 0c.544 0 1.064-.09 1.56-.272a3.999 3.999 0 0 0 1.32-.792 3.73 3.73 0 0 0 .912-1.28c.224-.507.336-1.09.336-1.752v-.192c0-.65-.112-1.23-.336-1.736a3.815 3.815 0 0 0 -.912-1.288 3.93 3.93 0 0 0 -1.32-.8 4.507 4.507 0 0 0 -1.56-.272c-.544 0-1.064.09-1.56.272a3.93 3.93 0 0 0 -1.32.8 3.815 3.815 0 0 0 -.912 1.288c-.224.507-.336 1.085-.336 1.736v.192c0 .661.112 1.245.336 1.752s.528.933.912 1.28.824.61 1.32.792a4.507 4.507 0 0 0 1.56.272zm0-1.92c-.288 0-.56-.048-.816-.144a1.98 1.98 0 0 1 -.672-.416 1.964 1.964 0 0 1 -.456-.664 2.234 2.234 0 0 1 -.168-.888v-.32c0-.33.056-.627.168-.888s.264-.483.456-.664a1.98 1.98 0 0 1 .672-.416c.256-.096.528-.144.816-.144s.56.048.816.144.48.235.672.416.344.403.456.664.168.557.168.888v.32c0 .33-.056.627-.168.888a1.964 1.964 0 0 1 -.456.664 1.98 1.98 0 0 1 -.672.416 2.305 2.305 0 0 1 -.816.144zm8.292 1.92c.544 0 1.064-.09 1.56-.272a3.999 3.999 0 0 0 1.32-.792 3.73 3.73 0 0 0 .912-1.28c.224-.507.336-1.09.336-1.752v-.192c0-.65-.112-1.23-.336-1.736a3.815 3.815 0 0 0 -.912-1.288 3.93 3.93 0 0 0 -1.32-.8 4.507 4.507 0 0 0 -1.56-.272c-.544 0-1.064.09-1.56.272a3.93 3.93 0 0 0 -1.32.8 3.815 3.815 0 0 0 -.912 1.288c-.224.507-.336 1.085-.336 1.736v.192c0 .661.112 1.245.336 1.752s.528.933.912 1.28.824.61 1.32.792a4.507 4.507 0 0 0 1.56.272zm0-1.92c-.288 0-.56-.048-.816-.144a1.98 1.98 0 0 1 -.672-.416 1.964 1.964 0 0 1 -.456-.664 2.234 2.234 0 0 1 -.168-.888v-.32c0-.33.056-.627.168-.888s.264-.483.456-.664a1.98 1.98 0 0 1 .672-.416c.256-.096.528-.144.816-.144s.56.048.816.144.48.235.672.416.344.403.456.664.168.557.168.888v.32c0 .33-.056.627-.168.888a1.964 1.964 0 0 1 -.456.664 1.98 1.98 0 0 1 -.672.416 2.305 2.305 0 0 1 -.816.144zm11.364 1.696v-1.92h-2.144c-.288 0-.432-.16-.432-.48v-3.616h2.864v-1.92h-2.864v-3.264h-2.016v3.264h-2.352v1.92h2.352v4.768c0 .363.115.661.344.896.23.235.525.352.888.352z" fill="#fff"/></svg>